<svg xmlns="http://www.w3.org/2000/svg" xmlns:xlink="http://www.w3.org/1999/xlink" width="500" zoomAndPan="magnify" viewBox="0 0 375 374.999991" height="500" preserveAspectRatio="xMidYMid meet" version="1.0"><defs><g/><clipPath id="506fc57bbb"><path d="M 112.5 73.371094 L 262.5 73.371094 L 262.5 212.121094 L 112.5 212.121094 Z M 112.5 73.371094 " clip-rule="nonzero"/></clipPath><clipPath id="83cdf59036"><path d="M 112.5 105 L 262.5 105 L 262.5 117 L 112.5 117 Z M 112.5 105 " clip-rule="nonzero"/></clipPath></defs><path fill="#ffffff" d="M 158.96875 174.765625 C 158.261719 174.765625 157.578125 174.628906 156.921875 174.359375 C 156.269531 174.085938 155.691406 173.699219 155.1875 173.199219 L 140.921875 158.972656 C 140.671875 158.726562 140.449219 158.457031 140.253906 158.164062 C 140.058594 157.871094 139.894531 157.566406 139.761719 157.242188 C 139.625 156.917969 139.523438 156.582031 139.453125 156.238281 C 139.386719 155.894531 139.351562 155.546875 139.351562 155.199219 C 139.351562 154.847656 139.386719 154.5 139.453125 154.15625 C 139.523438 153.8125 139.625 153.476562 139.757812 153.152344 C 139.894531 152.832031 140.058594 152.523438 140.253906 152.230469 C 140.449219 151.941406 140.671875 151.667969 140.921875 151.421875 L 155.1875 137.191406 C 155.4375 136.941406 155.707031 136.71875 156 136.523438 C 156.292969 136.332031 156.601562 136.164062 156.925781 136.03125 C 157.25 135.898438 157.585938 135.796875 157.929688 135.726562 C 158.273438 135.660156 158.621094 135.625 158.972656 135.625 C 159.324219 135.625 159.671875 135.660156 160.015625 135.726562 C 160.363281 135.796875 160.695312 135.898438 161.023438 136.03125 C 161.347656 136.164062 161.65625 136.332031 161.945312 136.523438 C 162.238281 136.71875 162.507812 136.941406 162.757812 137.191406 C 163.007812 137.4375 163.226562 137.707031 163.421875 138 C 163.617188 138.289062 163.785156 138.597656 163.917969 138.921875 C 164.050781 139.246094 164.152344 139.582031 164.222656 139.925781 C 164.289062 140.269531 164.324219 140.617188 164.324219 140.964844 C 164.324219 141.316406 164.289062 141.664062 164.21875 142.007812 C 164.152344 142.351562 164.050781 142.6875 163.914062 143.007812 C 163.78125 143.332031 163.613281 143.640625 163.417969 143.933594 C 163.222656 144.222656 163 144.492188 162.753906 144.742188 L 152.265625 155.195312 L 162.753906 165.65625 C 163.125 166.027344 163.4375 166.445312 163.6875 166.914062 C 163.9375 167.378906 164.113281 167.871094 164.214844 168.386719 C 164.320312 168.902344 164.34375 169.425781 164.292969 169.949219 C 164.242188 170.476562 164.113281 170.980469 163.910156 171.46875 C 163.710938 171.957031 163.441406 172.40625 163.105469 172.8125 C 162.769531 173.222656 162.382812 173.570312 161.941406 173.863281 C 161.5 174.15625 161.027344 174.382812 160.523438 174.535156 C 160.015625 174.6875 159.5 174.765625 158.96875 174.765625 Z M 158.96875 174.765625 " fill-opacity="1" fill-rule="nonzero"/><path fill="#ffffff" d="M 216.03125 174.765625 C 215.5 174.765625 214.984375 174.6875 214.476562 174.535156 C 213.96875 174.378906 213.496094 174.15625 213.058594 173.863281 C 212.617188 173.570312 212.230469 173.21875 211.894531 172.8125 C 211.558594 172.40625 211.289062 171.957031 211.089844 171.46875 C 210.886719 170.980469 210.757812 170.476562 210.707031 169.949219 C 210.65625 169.425781 210.679688 168.902344 210.785156 168.386719 C 210.886719 167.871094 211.0625 167.378906 211.3125 166.914062 C 211.5625 166.445312 211.875 166.027344 212.246094 165.65625 L 222.734375 155.195312 L 212.246094 144.742188 C 212 144.492188 211.777344 144.222656 211.582031 143.933594 C 211.386719 143.640625 211.222656 143.332031 211.085938 143.007812 C 210.953125 142.6875 210.851562 142.351562 210.78125 142.007812 C 210.714844 141.664062 210.679688 141.316406 210.679688 140.96875 C 210.679688 140.617188 210.710938 140.269531 210.78125 139.925781 C 210.847656 139.582031 210.949219 139.25 211.085938 138.925781 C 211.21875 138.601562 211.382812 138.292969 211.578125 138 C 211.773438 137.710938 211.996094 137.441406 212.246094 137.191406 C 212.492188 136.945312 212.761719 136.722656 213.054688 136.527344 C 213.347656 136.332031 213.65625 136.167969 213.980469 136.035156 C 214.304688 135.898438 214.640625 135.800781 214.984375 135.730469 C 215.328125 135.660156 215.675781 135.628906 216.027344 135.628906 C 216.378906 135.628906 216.726562 135.660156 217.070312 135.730469 C 217.417969 135.796875 217.75 135.898438 218.074219 136.03125 C 218.398438 136.167969 218.707031 136.332031 219 136.527344 C 219.292969 136.71875 219.5625 136.941406 219.8125 137.191406 L 234.078125 151.421875 C 234.328125 151.667969 234.550781 151.941406 234.746094 152.230469 C 234.941406 152.523438 235.105469 152.832031 235.238281 153.152344 C 235.375 153.476562 235.476562 153.8125 235.546875 154.15625 C 235.613281 154.5 235.648438 154.847656 235.648438 155.199219 C 235.648438 155.546875 235.613281 155.894531 235.546875 156.238281 C 235.476562 156.582031 235.375 156.917969 235.238281 157.242188 C 235.105469 157.566406 234.941406 157.871094 234.746094 158.164062 C 234.550781 158.457031 234.328125 158.726562 234.078125 158.972656 L 219.8125 173.199219 C 219.308594 173.699219 218.730469 174.085938 218.074219 174.359375 C 217.421875 174.628906 216.738281 174.765625 216.03125 174.765625 Z M 216.03125 174.765625 " fill-opacity="1" fill-rule="nonzero"/><path fill="#ffffff" d="M 180.363281 174.765625 C 180.136719 174.765625 179.910156 174.75 179.683594 174.71875 C 179.460938 174.691406 179.238281 174.648438 179.019531 174.59375 C 178.796875 174.535156 178.582031 174.464844 178.371094 174.378906 C 178.164062 174.296875 177.957031 174.199219 177.761719 174.085938 C 177.5625 173.976562 177.371094 173.855469 177.1875 173.71875 C 177.007812 173.585938 176.832031 173.441406 176.667969 173.285156 C 176.503906 173.128906 176.351562 172.960938 176.207031 172.785156 C 176.066406 172.609375 175.933594 172.425781 175.816406 172.234375 C 175.695312 172.039062 175.589844 171.839844 175.496094 171.632812 C 175.402344 171.429688 175.320312 171.21875 175.253906 171 C 175.1875 170.785156 175.136719 170.566406 175.097656 170.339844 C 175.058594 170.117188 175.03125 169.894531 175.023438 169.667969 C 175.011719 169.441406 175.015625 169.214844 175.035156 168.988281 C 175.054688 168.765625 175.085938 168.539062 175.132812 168.320312 C 175.179688 168.097656 175.242188 167.878906 175.316406 167.667969 C 175.390625 167.453125 175.480469 167.246094 175.582031 167.042969 L 189.84375 138.578125 C 190 138.261719 190.1875 137.96875 190.40625 137.691406 C 190.621094 137.414062 190.863281 137.160156 191.128906 136.933594 C 191.394531 136.703125 191.679688 136.5 191.988281 136.328125 C 192.292969 136.15625 192.613281 136.011719 192.949219 135.902344 C 193.28125 135.792969 193.625 135.714844 193.972656 135.671875 C 194.320312 135.628906 194.671875 135.621094 195.023438 135.648438 C 195.375 135.671875 195.71875 135.730469 196.058594 135.824219 C 196.398438 135.917969 196.722656 136.042969 197.039062 136.203125 C 197.351562 136.359375 197.648438 136.546875 197.925781 136.761719 C 198.203125 136.976562 198.457031 137.21875 198.6875 137.484375 C 198.917969 137.75 199.117188 138.035156 199.292969 138.339844 C 199.464844 138.648438 199.609375 138.964844 199.71875 139.300781 C 199.828125 139.632812 199.90625 139.972656 199.949219 140.320312 C 199.992188 140.671875 200 141.019531 199.976562 141.371094 C 199.949219 141.71875 199.890625 142.0625 199.796875 142.402344 C 199.703125 142.742188 199.578125 143.066406 199.417969 143.378906 L 185.15625 171.839844 C 184.933594 172.28125 184.652344 172.683594 184.316406 173.046875 C 183.980469 173.410156 183.597656 173.722656 183.175781 173.980469 C 182.753906 174.238281 182.300781 174.433594 181.824219 174.566406 C 181.347656 174.699219 180.859375 174.765625 180.363281 174.765625 Z M 180.363281 174.765625 " fill-opacity="1" fill-rule="nonzero"/><g clip-path="url(#506fc57bbb)"><path fill="#ffffff" d="M 257.042969 212.121094 L 117.953125 212.121094 C 117.605469 212.121094 117.257812 212.085938 116.910156 212.015625 C 116.566406 211.949219 116.230469 211.847656 115.90625 211.714844 C 115.582031 211.578125 115.273438 211.414062 114.984375 211.21875 C 114.691406 211.027344 114.421875 210.804688 114.171875 210.558594 C 113.925781 210.308594 113.703125 210.039062 113.507812 209.75 C 113.3125 209.457031 113.148438 209.148438 113.011719 208.824219 C 112.878906 208.5 112.777344 208.167969 112.707031 207.824219 C 112.640625 207.480469 112.605469 207.132812 112.605469 206.785156 L 112.605469 78.707031 C 112.605469 78.355469 112.640625 78.007812 112.707031 77.664062 C 112.777344 77.320312 112.878906 76.988281 113.011719 76.664062 C 113.148438 76.339844 113.3125 76.03125 113.507812 75.742188 C 113.703125 75.449219 113.925781 75.179688 114.171875 74.933594 C 114.421875 74.683594 114.691406 74.464844 114.984375 74.269531 C 115.273438 74.074219 115.582031 73.910156 115.90625 73.777344 C 116.230469 73.640625 116.566406 73.539062 116.910156 73.472656 C 117.257812 73.402344 117.605469 73.371094 117.953125 73.371094 L 257.042969 73.371094 C 257.394531 73.371094 257.742188 73.402344 258.089844 73.472656 C 258.433594 73.539062 258.765625 73.640625 259.09375 73.777344 C 259.417969 73.910156 259.726562 74.074219 260.015625 74.269531 C 260.308594 74.464844 260.578125 74.683594 260.828125 74.933594 C 261.074219 75.179688 261.296875 75.449219 261.492188 75.742188 C 261.6875 76.03125 261.851562 76.339844 261.988281 76.664062 C 262.121094 76.988281 262.222656 77.320312 262.292969 77.664062 C 262.359375 78.007812 262.394531 78.355469 262.394531 78.707031 L 262.394531 206.785156 C 262.394531 207.132812 262.359375 207.480469 262.292969 207.824219 C 262.222656 208.167969 262.121094 208.5 261.988281 208.824219 C 261.851562 209.148438 261.6875 209.457031 261.492188 209.75 C 261.296875 210.039062 261.074219 210.308594 260.828125 210.558594 C 260.578125 210.804688 260.308594 211.027344 260.015625 211.21875 C 259.726562 211.414062 259.417969 211.578125 259.09375 211.714844 C 258.765625 211.847656 258.433594 211.949219 258.089844 212.015625 C 257.742188 212.085938 257.394531 212.121094 257.042969 212.121094 Z M 123.304688 201.445312 L 251.695312 201.445312 L 251.695312 84.042969 L 123.304688 84.042969 Z M 123.304688 201.445312 " fill-opacity="1" fill-rule="nonzero"/></g><g clip-path="url(#83cdf59036)"><path fill="#ffffff" d="M 257.042969 116.0625 L 117.953125 116.0625 C 117.605469 116.0625 117.257812 116.027344 116.910156 115.960938 C 116.566406 115.890625 116.230469 115.789062 115.90625 115.65625 C 115.582031 115.523438 115.273438 115.359375 114.984375 115.164062 C 114.691406 114.96875 114.421875 114.746094 114.171875 114.5 C 113.925781 114.25 113.703125 113.980469 113.507812 113.691406 C 113.3125 113.398438 113.148438 113.089844 113.011719 112.769531 C 112.878906 112.445312 112.777344 112.109375 112.707031 111.765625 C 112.640625 111.421875 112.605469 111.074219 112.605469 110.726562 C 112.605469 110.375 112.640625 110.027344 112.707031 109.683594 C 112.777344 109.339844 112.878906 109.007812 113.011719 108.683594 C 113.148438 108.359375 113.3125 108.050781 113.507812 107.761719 C 113.703125 107.46875 113.925781 107.199219 114.171875 106.953125 C 114.421875 106.703125 114.691406 106.484375 114.984375 106.289062 C 115.273438 106.09375 115.582031 105.929688 115.90625 105.796875 C 116.230469 105.660156 116.566406 105.558594 116.910156 105.492188 C 117.257812 105.421875 117.605469 105.390625 117.953125 105.390625 L 257.042969 105.390625 C 257.394531 105.390625 257.742188 105.421875 258.089844 105.492188 C 258.433594 105.558594 258.765625 105.660156 259.09375 105.796875 C 259.417969 105.929688 259.726562 106.09375 260.015625 106.289062 C 260.308594 106.484375 260.578125 106.703125 260.828125 106.953125 C 261.074219 107.199219 261.296875 107.46875 261.492188 107.761719 C 261.6875 108.050781 261.851562 108.359375 261.988281 108.683594 C 262.121094 109.007812 262.222656 109.339844 262.292969 109.683594 C 262.359375 110.027344 262.394531 110.375 262.394531 110.726562 C 262.394531 111.074219 262.359375 111.421875 262.292969 111.765625 C 262.222656 112.109375 262.121094 112.445312 261.988281 112.769531 C 261.851562 113.089844 261.6875 113.398438 261.492188 113.691406 C 261.296875 113.980469 261.074219 114.25 260.828125 114.5 C 260.578125 114.746094 260.308594 114.96875 260.015625 115.164062 C 259.726562 115.359375 259.417969 115.523438 259.09375 115.65625 C 258.765625 115.789062 258.433594 115.890625 258.089844 115.960938 C 257.742188 116.027344 257.394531 116.0625 257.042969 116.0625 Z M 257.042969 116.0625 " fill-opacity="1" fill-rule="nonzero"/></g><path fill="#ffffff" d="M 208.898438 100.050781 C 208.539062 100.042969 208.183594 100.003906 207.828125 99.945312 C 207.492188 99.886719 207.171875 99.78125 206.867188 99.625 C 206.523438 99.507812 206.199219 99.347656 205.898438 99.144531 L 205.101562 98.503906 C 204.855469 98.253906 204.632812 97.984375 204.441406 97.6875 C 204.246094 97.394531 204.085938 97.085938 203.953125 96.761719 C 203.820312 96.4375 203.71875 96.101562 203.648438 95.757812 C 203.582031 95.414062 203.546875 95.066406 203.546875 94.714844 C 203.546875 94.363281 203.582031 94.015625 203.648438 93.671875 C 203.71875 93.328125 203.820312 92.996094 203.953125 92.667969 C 204.085938 92.34375 204.246094 92.035156 204.441406 91.742188 C 204.632812 91.449219 204.855469 91.175781 205.101562 90.925781 C 205.480469 90.5625 205.902344 90.257812 206.371094 90.015625 C 206.839844 89.773438 207.332031 89.601562 207.847656 89.503906 C 208.367188 89.402344 208.886719 89.378906 209.414062 89.429688 C 209.9375 89.484375 210.441406 89.609375 210.929688 89.804688 C 211.261719 89.914062 211.566406 90.074219 211.839844 90.285156 C 212.15625 90.5 212.429688 90.714844 212.695312 90.925781 C 212.941406 91.175781 213.164062 91.449219 213.355469 91.742188 C 213.550781 92.035156 213.710938 92.34375 213.84375 92.667969 C 213.976562 92.996094 214.078125 93.328125 214.148438 93.671875 C 214.214844 94.015625 214.25 94.363281 214.25 94.714844 C 214.25 95.066406 214.214844 95.414062 214.148438 95.757812 C 214.078125 96.101562 213.976562 96.4375 213.84375 96.761719 C 213.710938 97.085938 213.550781 97.394531 213.355469 97.6875 C 213.164062 97.984375 212.941406 98.253906 212.695312 98.503906 C 212.171875 98.976562 211.582031 99.351562 210.929688 99.625 C 210.28125 99.902344 209.605469 100.042969 208.898438 100.050781 Z M 208.898438 100.050781 " fill-opacity="1" fill-rule="nonzero"/><path fill="#ffffff" d="M 224.945312 100.050781 C 224.589844 100.042969 224.230469 100.003906 223.878906 99.945312 C 223.539062 99.886719 223.21875 99.78125 222.914062 99.625 C 222.570312 99.507812 222.246094 99.347656 221.945312 99.144531 C 221.667969 98.945312 221.402344 98.734375 221.148438 98.503906 C 220.648438 97.996094 220.273438 97.410156 220.027344 96.742188 C 219.742188 96.097656 219.597656 95.421875 219.597656 94.714844 C 219.597656 94.011719 219.742188 93.335938 220.027344 92.6875 C 220.300781 92.035156 220.671875 91.449219 221.148438 90.925781 C 221.523438 90.550781 221.945312 90.238281 222.410156 89.984375 C 222.878906 89.734375 223.375 89.558594 223.894531 89.453125 C 224.414062 89.347656 224.941406 89.320312 225.46875 89.375 C 226 89.425781 226.507812 89.554688 227 89.757812 C 227.488281 89.960938 227.941406 90.230469 228.351562 90.566406 C 228.757812 90.902344 229.113281 91.292969 229.40625 91.734375 C 229.699219 92.175781 229.921875 92.652344 230.074219 93.160156 C 230.226562 93.667969 230.300781 94.1875 230.296875 94.714844 C 230.273438 96.179688 229.757812 97.445312 228.746094 98.503906 C 228.488281 98.734375 228.222656 98.945312 227.941406 99.144531 C 227.644531 99.347656 227.320312 99.507812 226.980469 99.625 C 226.675781 99.78125 226.355469 99.886719 226.015625 99.945312 C 225.664062 100.007812 225.304688 100.042969 224.945312 100.050781 Z M 224.945312 100.050781 " fill-opacity="1" fill-rule="nonzero"/><path fill="#ffffff" d="M 240.996094 100.050781 C 240.644531 100.054688 240.292969 100.023438 239.949219 99.960938 C 239.601562 99.894531 239.265625 99.792969 238.941406 99.660156 C 238.613281 99.527344 238.304688 99.363281 238.011719 99.167969 C 237.71875 98.976562 237.445312 98.753906 237.199219 98.503906 C 236.949219 98.257812 236.726562 97.988281 236.53125 97.695312 C 236.335938 97.402344 236.171875 97.09375 236.039062 96.765625 C 235.90625 96.441406 235.804688 96.105469 235.742188 95.761719 C 235.675781 95.414062 235.644531 95.066406 235.644531 94.714844 C 235.628906 94.007812 235.769531 93.332031 236.074219 92.6875 C 236.347656 92.035156 236.722656 91.449219 237.199219 90.925781 C 237.453125 90.691406 237.730469 90.480469 238.027344 90.296875 C 238.320312 90.113281 238.632812 89.957031 238.957031 89.828125 C 239.28125 89.703125 239.617188 89.605469 239.957031 89.542969 C 240.300781 89.476562 240.648438 89.445312 240.996094 89.445312 C 241.34375 89.445312 241.691406 89.476562 242.035156 89.542969 C 242.375 89.605469 242.710938 89.703125 243.035156 89.828125 C 243.359375 89.957031 243.671875 90.113281 243.964844 90.296875 C 244.261719 90.480469 244.539062 90.691406 244.792969 90.925781 C 245.269531 91.449219 245.644531 92.035156 245.917969 92.6875 C 246.195312 93.335938 246.335938 94.011719 246.34375 94.714844 C 246.347656 95.066406 246.316406 95.414062 246.25 95.761719 C 246.1875 96.105469 246.085938 96.441406 245.953125 96.765625 C 245.820312 97.09375 245.65625 97.402344 245.460938 97.695312 C 245.265625 97.988281 245.042969 98.257812 244.792969 98.503906 C 244.546875 98.753906 244.273438 98.976562 243.980469 99.167969 C 243.6875 99.363281 243.378906 99.527344 243.050781 99.660156 C 242.726562 99.792969 242.390625 99.894531 242.042969 99.960938 C 241.699219 100.023438 241.347656 100.054688 240.996094 100.050781 Z M 240.996094 100.050781 " fill-opacity="1" fill-rule="nonzero"/><g fill="#ffffff" fill-opacity="1"><g transform="translate(96.124663, 283.415914)"><g><path d="M 29.054688 -41.34375 C 29.054688 -47.265625 25.902344 -50.417969 19.976562 -50.417969 L 4.160156 -50.417969 C 3.527344 -50.417969 3.152344 -50.039062 3.152344 -49.410156 L 3.152344 -1.007812 C 3.152344 -0.378906 3.527344 0 4.160156 0 L 10.714844 0 C 11.34375 0 11.722656 -0.378906 11.722656 -1.007812 L 11.722656 -16.890625 L 16.070312 -16.890625 L 20.292969 -0.882812 C 20.417969 -0.316406 20.734375 0 21.363281 0 L 27.917969 0 C 28.613281 0 28.992188 -0.378906 28.800781 -1.132812 L 24.453125 -17.644531 C 27.476562 -18.96875 29.054688 -21.742188 29.054688 -25.964844 Z M 11.722656 -25.210938 L 11.722656 -42.097656 L 17.960938 -42.097656 C 19.601562 -42.097656 20.480469 -41.214844 20.480469 -39.578125 L 20.480469 -27.730469 C 20.480469 -26.089844 19.601562 -25.210938 17.960938 -25.210938 Z M 11.722656 -25.210938 "/></g></g></g><g fill="#ffffff" fill-opacity="1"><g transform="translate(129.584155, 283.415914)"><g><path d="M 33.527344 0 C 34.285156 0 34.535156 -0.378906 34.410156 -1.070312 L 23.949219 -49.535156 C 23.824219 -50.164062 23.445312 -50.417969 22.878906 -50.417969 L 14.117188 -50.417969 C 13.550781 -50.417969 13.171875 -50.164062 13.046875 -49.535156 L 2.582031 -1.070312 C 2.394531 -0.378906 2.710938 0 3.402344 0 L 10.148438 0 C 10.714844 0 11.027344 -0.316406 11.15625 -0.882812 L 12.855469 -10.082031 L 24.074219 -10.082031 L 25.839844 -0.882812 C 25.964844 -0.316406 26.28125 0 26.847656 0 Z M 22.5 -17.394531 L 14.433594 -17.394531 L 18.464844 -39.390625 Z M 22.5 -17.394531 "/></g></g></g><g fill="#ffffff" fill-opacity="1"><g transform="translate(167.769519, 283.415914)"><g><path d="M 29.496094 -50.417969 C 28.738281 -50.417969 28.296875 -50.039062 28.109375 -49.285156 L 21.113281 -17.898438 L 14.117188 -49.285156 C 13.929688 -50.039062 13.488281 -50.417969 12.730469 -50.417969 L 4.410156 -50.417969 C 3.59375 -50.417969 3.152344 -49.976562 3.152344 -49.15625 L 3.152344 -1.261719 C 3.152344 -0.441406 3.59375 0 4.410156 0 L 10.210938 0 C 11.027344 0 11.46875 -0.441406 11.46875 -1.261719 L 11.46875 -29.621094 L 11.910156 -29.621094 L 18.152344 -1.132812 C 18.339844 -0.378906 18.78125 0 19.535156 0 L 22.625 0 C 23.382812 0 23.824219 -0.378906 24.011719 -1.132812 L 30.25 -29.621094 L 30.691406 -29.621094 L 30.691406 -1.261719 C 30.691406 -0.441406 31.132812 0 31.953125 0 L 37.8125 0 C 38.632812 0 39.074219 -0.441406 39.074219 -1.261719 L 39.074219 -49.15625 C 39.074219 -49.976562 38.632812 -50.417969 37.8125 -50.417969 Z M 29.496094 -50.417969 "/></g></g></g><g fill="#ffffff" fill-opacity="1"><g transform="translate(211.24787, 283.415914)"><g><path d="M 28.296875 -49.410156 C 28.296875 -50.039062 28.046875 -50.417969 27.289062 -50.417969 L 4.097656 -50.417969 C 3.527344 -50.417969 3.152344 -50.039062 3.152344 -49.410156 L 3.152344 -1.007812 C 3.152344 -0.378906 3.527344 0 4.097656 0 L 27.289062 0 C 28.046875 0 28.296875 -0.378906 28.296875 -1.007812 L 28.296875 -7.3125 C 28.296875 -8.003906 28.046875 -8.320312 27.289062 -8.320312 L 11.53125 -8.320312 L 11.53125 -21.050781 L 23.570312 -21.050781 C 24.199219 -21.050781 24.578125 -21.425781 24.578125 -22.121094 L 24.578125 -28.359375 C 24.578125 -29.054688 24.199219 -29.429688 23.570312 -29.429688 L 11.53125 -29.429688 L 11.53125 -42.035156 L 27.289062 -42.035156 C 28.046875 -42.035156 28.296875 -42.476562 28.296875 -43.105469 Z M 28.296875 -49.410156 "/></g></g></g><g fill="#ffffff" fill-opacity="1"><g transform="translate(243.951214, 283.415914)"><g><path d="M 4.664062 -50.417969 C 4.035156 -50.355469 3.65625 -50.039062 3.65625 -49.347656 L 3.65625 -43.042969 C 3.65625 -42.414062 4.035156 -42.035156 4.664062 -42.035156 L 17.710938 -42.035156 L 2.015625 -1.511719 C 1.636719 -0.628906 1.953125 0 2.960938 0 L 27.476562 0 C 28.109375 -0.0625 28.484375 -0.441406 28.484375 -1.070312 L 28.484375 -7.3125 C 28.484375 -8.003906 28.109375 -8.320312 27.476562 -8.320312 L 13.613281 -8.320312 L 29.304688 -48.90625 C 29.621094 -49.789062 29.367188 -50.417969 28.359375 -50.417969 Z M 4.664062 -50.417969 "/></g></g></g><g fill="#ffffff" fill-opacity="1"><g transform="translate(277.155905, 283.415914)"><g/></g></g><g fill="#ffffff" fill-opacity="1"><g transform="translate(79.050446, 349.41591)"><g><path d="M 12.226562 -50.417969 C 6.367188 -50.417969 3.152344 -47.265625 3.152344 -41.34375 L 3.152344 -26.46875 C 3.152344 -25.273438 3.71875 -24.515625 4.851562 -24.136719 L 19.789062 -19.222656 L 19.789062 -10.839844 C 19.789062 -9.136719 18.90625 -8.320312 17.269531 -8.320312 L 14.242188 -8.320312 C 12.667969 -8.320312 11.722656 -9.136719 11.722656 -10.839844 L 11.722656 -15.691406 C 11.722656 -16.386719 11.40625 -16.699219 10.714844 -16.699219 L 4.160156 -16.699219 C 3.527344 -16.699219 3.152344 -16.386719 3.152344 -15.691406 L 3.152344 -9.074219 C 3.152344 -3.152344 6.367188 0 12.226562 0 L 19.285156 0 C 25.210938 0 28.359375 -3.152344 28.359375 -9.074219 L 28.359375 -23.632812 C 28.359375 -24.832031 27.792969 -25.523438 26.722656 -25.964844 L 11.722656 -30.882812 L 11.722656 -39.578125 C 11.722656 -41.214844 12.667969 -42.097656 14.242188 -42.097656 L 17.269531 -42.097656 C 18.96875 -42.097656 19.789062 -41.214844 19.789062 -39.578125 L 19.789062 -34.664062 C 19.789062 -34.03125 20.167969 -33.652344 20.796875 -33.652344 L 27.351562 -33.652344 C 28.046875 -33.652344 28.359375 -34.03125 28.359375 -34.664062 L 28.359375 -41.34375 C 28.359375 -47.265625 25.210938 -50.417969 19.285156 -50.417969 Z M 12.226562 -50.417969 "/></g></g></g><g fill="#ffffff" fill-opacity="1"><g transform="translate(111.816804, 349.41591)"><g><path d="M 3.152344 -9.074219 C 3.152344 -3.152344 6.300781 0 12.226562 0 L 19.285156 0 C 25.210938 0 28.359375 -3.152344 28.359375 -9.074219 L 28.359375 -41.34375 C 28.359375 -47.265625 25.210938 -50.417969 19.285156 -50.417969 L 12.226562 -50.417969 C 6.300781 -50.417969 3.152344 -47.265625 3.152344 -41.34375 Z M 14.054688 -8.128906 C 12.414062 -8.128906 11.53125 -8.949219 11.53125 -10.652344 L 11.53125 -39.765625 C 11.53125 -41.40625 12.414062 -42.289062 14.054688 -42.289062 L 17.710938 -42.289062 C 19.347656 -42.289062 20.230469 -41.40625 20.230469 -39.765625 L 20.230469 -10.652344 C 20.230469 -8.949219 19.347656 -8.128906 17.710938 -8.128906 Z M 14.054688 -8.128906 "/></g></g></g><g fill="#ffffff" fill-opacity="1"><g transform="translate(144.583161, 349.41591)"><g><path d="M 11.722656 -8.320312 L 26.722656 -8.320312 C 27.414062 -8.320312 27.730469 -7.941406 27.730469 -7.3125 L 27.730469 -1.007812 C 27.730469 -0.316406 27.414062 0 26.722656 0 L 4.160156 0 C 3.527344 0 3.152344 -0.316406 3.152344 -1.007812 L 3.152344 -49.410156 C 3.152344 -50.039062 3.527344 -50.417969 4.160156 -50.417969 L 10.714844 -50.417969 C 11.40625 -50.417969 11.722656 -50.039062 11.722656 -49.410156 Z M 11.722656 -8.320312 "/></g></g></g><g fill="#ffffff" fill-opacity="1"><g transform="translate(176.719411, 349.41591)"><g><path d="M 4.160156 -50.417969 C 3.464844 -50.417969 3.152344 -50.039062 3.152344 -49.410156 L 3.152344 -1.007812 C 3.152344 -0.378906 3.464844 0 4.160156 0 L 10.714844 0 C 11.34375 0 11.722656 -0.378906 11.722656 -1.007812 L 11.722656 -49.410156 C 11.722656 -50.039062 11.34375 -50.417969 10.714844 -50.417969 Z M 4.160156 -50.417969 "/></g></g></g><g fill="#ffffff" fill-opacity="1"><g transform="translate(192.850681, 349.41591)"><g><path d="M 29.496094 -50.417969 C 28.738281 -50.417969 28.296875 -50.039062 28.109375 -49.285156 L 21.113281 -17.898438 L 14.117188 -49.285156 C 13.929688 -50.039062 13.488281 -50.417969 12.730469 -50.417969 L 4.410156 -50.417969 C 3.59375 -50.417969 3.152344 -49.976562 3.152344 -49.15625 L 3.152344 -1.261719 C 3.152344 -0.441406 3.59375 0 4.410156 0 L 10.210938 0 C 11.027344 0 11.46875 -0.441406 11.46875 -1.261719 L 11.46875 -29.621094 L 11.910156 -29.621094 L 18.152344 -1.132812 C 18.339844 -0.378906 18.78125 0 19.535156 0 L 22.625 0 C 23.382812 0 23.824219 -0.378906 24.011719 -1.132812 L 30.25 -29.621094 L 30.691406 -29.621094 L 30.691406 -1.261719 C 30.691406 -0.441406 31.132812 0 31.953125 0 L 37.8125 0 C 38.632812 0 39.074219 -0.441406 39.074219 -1.261719 L 39.074219 -49.15625 C 39.074219 -49.976562 38.632812 -50.417969 37.8125 -50.417969 Z M 29.496094 -50.417969 "/></g></g></g><g fill="#ffffff" fill-opacity="1"><g transform="translate(236.329026, 349.41591)"><g><path d="M 33.527344 0 C 34.285156 0 34.535156 -0.378906 34.410156 -1.070312 L 23.949219 -49.535156 C 23.824219 -50.164062 23.445312 -50.417969 22.878906 -50.417969 L 14.117188 -50.417969 C 13.550781 -50.417969 13.171875 -50.164062 13.046875 -49.535156 L 2.582031 -1.070312 C 2.394531 -0.378906 2.710938 0 3.402344 0 L 10.148438 0 C 10.714844 0 11.027344 -0.316406 11.15625 -0.882812 L 12.855469 -10.082031 L 24.074219 -10.082031 L 25.839844 -0.882812 C 25.964844 -0.316406 26.28125 0 26.847656 0 Z M 22.5 -17.394531 L 14.433594 -17.394531 L 18.464844 -39.390625 Z M 22.5 -17.394531 "/></g></g></g><g fill="#ffffff" fill-opacity="1"><g transform="translate(274.514399, 349.41591)"><g><path d="M 22.5 -50.417969 C 21.804688 -50.417969 21.492188 -50.039062 21.492188 -49.410156 L 21.492188 -22.8125 L 21.113281 -22.8125 L 11.53125 -49.597656 C 11.34375 -50.164062 10.964844 -50.417969 10.398438 -50.417969 L 4.160156 -50.417969 C 3.527344 -50.417969 3.152344 -50.039062 3.152344 -49.410156 L 3.152344 -1.007812 C 3.152344 -0.378906 3.527344 0 4.160156 0 L 10.714844 0 C 11.40625 0 11.722656 -0.378906 11.722656 -1.007812 L 11.722656 -27.730469 L 12.039062 -27.730469 L 21.679688 -0.820312 C 21.867188 -0.253906 22.246094 0 22.8125 0 L 29.054688 0 C 29.683594 0 30.0625 -0.378906 30.0625 -1.007812 L 30.0625 -49.410156 C 30.0625 -50.039062 29.683594 -50.417969 29.054688 -50.417969 Z M 22.5 -50.417969 "/></g></g></g></svg>